/* XPM */
static char * title_3_active_xpm[] = {
"5 24 4 1",
" 	c None",
".	c #343537",
"+	c #454649",
"@	c #5C5E61",
".....",
"+++++",
"+++++",
"+++++",
"+++++",
"+++++",
"+++++",
"+++++",
"+++++",
"+++++",
"+++++",
"@@@@@",
"@@@@@",
"@@@@@",
"@@@@@",
"@@@@@",
"@@@@@",
"@@@@@",
"@@@@@",
"@@@@@",
"@@@@@",
"@@@@@",
"@@@@@",
"@@@@@"};
