/* XPM */
static char * title_3_inactive_xpm[] = {
"5 24 4 1",
" 	c None",
".	c #1A1A1A",
"+	c #2C2C2C",
"@	c #424242",
".....",
"+++++",
"+++++",
"+++++",
"+++++",
"+++++",
"+++++",
"+++++",
"+++++",
"+++++",
"+++++",
"+++++",
"@@@@@",
"@@@@@",
"@@@@@",
"@@@@@",
"@@@@@",
"@@@@@",
"@@@@@",
"@@@@@",
"@@@@@",
"@@@@@",
"@@@@@",
"@@@@@"};
